<svg width="135" height="40" viewBox="0 0 135 40" fill="none" xmlns="http://www.w3.org/2000/svg">
<path d="M130 0H5C3.67392 0 2.40215 0.526784 1.46447 1.46447C0.526784 2.40215 0 3.67392 0 5L0 35C0 36.3261 0.526784 37.5979 1.46447 38.5355C2.40215 39.4732 3.67392 40 5 40H130C131.326 40 132.598 39.4732 133.536 38.5355C134.473 37.5979 135 36.3261 135 35V5C135 3.67392 134.473 2.40215 133.536 1.46447C132.598 0.526784 131.326 0 130 0V0Z" fill="black"/>
<path d="M130 0.8C131.114 0.8 132.182 1.2425 132.97 2.03015C133.758 2.8178 134.2 3.88609 134.2 5V35C134.2 36.1139 133.758 37.1822 132.97 37.9698C132.182 38.7575 131.114 39.2 130 39.2H5C3.88609 39.2 2.8178 38.7575 2.03015 37.9698C1.2425 37.1822 0.8 36.1139 0.8 35V5C0.8 3.88609 1.2425 2.8178 2.03015 2.03015C2.8178 1.2425 3.88609 0.8 5 0.8H130ZM130 0H5C3.67392 0 2.40215 0.526784 1.46447 1.46447C0.526784 2.40215 0 3.67392 0 5L0 35C0 36.3261 0.526784 37.5979 1.46447 38.5355C2.40215 39.4732 3.67392 40 5 40H130C131.326 40 132.598 39.4732 133.536 38.5355C134.473 37.5979 135 36.3261 135 35V5C135 3.67392 134.473 2.40215 133.536 1.46447C132.598 0.526784 131.326 0 130 0V0Z" fill="#A6A6A6"/>
<path d="M49.435 27.022H44.811L43.683 30.11H41.645L46.175 18.558H48.103L52.743 30.11H50.61L49.435 27.022ZM45.391 25.455H48.839L47.601 22.147C47.4106 21.6483 47.2435 21.1411 47.1 20.627C46.943 21.113 46.786 21.614 46.614 22.132L45.391 25.454V25.455ZM53.652 23.62C53.652 22.978 53.636 22.288 53.589 21.52H55.439C55.501 21.88 55.549 22.241 55.579 22.617C56.347 21.787 57.225 21.363 58.213 21.363C58.793 21.363 59.326 21.505 59.812 21.803C60.297 22.084 60.689 22.555 61.002 23.182C61.3 23.809 61.457 24.608 61.457 25.564C61.457 26.567 61.285 27.429 60.94 28.134C60.595 28.84 60.125 29.389 59.498 29.749C58.887 30.109 58.166 30.298 57.366 30.298C56.786 30.298 56.206 30.204 55.642 30V33.542L53.667 33.715V23.62H53.652V23.62ZM58.824 28.025C59.231 27.492 59.42 26.693 59.42 25.658C59.42 24.702 59.247 23.997 58.918 23.558C58.588 23.119 58.15 22.915 57.586 22.915C57.2142 22.9157 56.8483 23.0074 56.52 23.182C56.1806 23.3791 55.8694 23.6213 55.595 23.902V28.511C56.0505 28.7259 56.5494 28.833 57.053 28.824C57.837 28.824 58.433 28.558 58.824 28.025V28.025ZM62.695 23.62C62.695 22.978 62.68 22.288 62.632 21.52H64.482C64.545 21.88 64.592 22.241 64.623 22.617C65.391 21.787 66.269 21.363 67.256 21.363C67.8201 21.3563 68.3747 21.5088 68.856 21.803C69.341 22.084 69.733 22.555 70.046 23.182C70.344 23.809 70.501 24.608 70.501 25.564C70.501 26.567 70.329 27.429 69.984 28.134C69.639 28.84 69.169 29.389 68.542 29.749C67.93 30.109 67.209 30.298 66.41 30.298C65.83 30.298 65.25 30.204 64.686 30V33.542L62.711 33.715V23.62H62.695V23.62ZM67.883 28.025C68.291 27.492 68.479 26.693 68.479 25.658C68.479 24.702 68.307 23.997 67.977 23.558C67.648 23.119 67.209 22.915 66.645 22.915C66.2732 22.9157 65.9073 23.0074 65.579 23.182C65.24 23.3792 64.9291 23.6214 64.655 23.902V28.511C65.1105 28.7259 65.6094 28.833 66.113 28.824C66.896 28.824 67.476 28.558 67.883 28.025V28.025ZM74.2 29.577C73.3586 29.1149 72.6756 28.4104 72.24 27.555C71.786 26.677 71.55 25.643 71.55 24.451C71.55 23.151 71.817 22.053 72.335 21.144C72.868 20.235 73.573 19.561 74.482 19.107C75.391 18.652 76.41 18.417 77.538 18.417C78.7807 18.4155 80.0078 18.694 81.128 19.232L80.626 20.752C79.576 20.251 78.573 20 77.632 20C76.833 20 76.128 20.172 75.516 20.517C74.906 20.862 74.451 21.364 74.106 22.022C73.776 22.68 73.604 23.495 73.604 24.436C73.604 25.266 73.73 25.987 73.996 26.63C74.263 27.273 74.654 27.774 75.219 28.15C75.767 28.527 76.473 28.715 77.319 28.715C77.7022 28.7145 78.0848 28.683 78.463 28.621C78.8316 28.5604 79.1938 28.466 79.545 28.339V26.003H76.88V24.451H81.473V29.311C80.8083 29.6274 80.1084 29.8641 79.388 30.016C78.6793 30.1841 77.9533 30.268 77.225 30.266C76.065 30.282 75.062 30.047 74.2 29.576V29.577ZM88.557 30.125C88.4892 29.7465 88.4424 29.3646 88.417 28.981C88.118 29.341 87.711 29.655 87.225 29.906C86.7146 30.162 86.1499 30.2909 85.579 30.282C85.078 30.282 84.639 30.188 84.231 29.984C83.8253 29.7974 83.4862 29.4914 83.259 29.107C83.024 28.715 82.899 28.244 82.899 27.68C82.899 26.85 83.197 26.175 83.808 25.69C84.404 25.188 85.407 24.937 86.818 24.937C87.35 24.937 87.868 24.969 88.385 25.047V24.875C88.385 24.107 88.228 23.574 87.899 23.26C87.569 22.947 87.115 22.79 86.504 22.79C86.0485 22.7951 85.5955 22.8583 85.156 22.978C84.7248 23.0833 84.3048 23.2303 83.902 23.417L83.588 21.975C84.0368 21.7805 84.5047 21.6334 84.984 21.536C85.5809 21.4028 86.1904 21.3344 86.802 21.332C87.538 21.332 88.181 21.442 88.698 21.677C89.216 21.897 89.623 22.288 89.921 22.837C90.219 23.386 90.36 24.122 90.36 25.063V28.48C90.36 28.84 90.375 29.373 90.422 30.094H88.557V30.125V30.125ZM87.382 28.527C87.789 28.323 88.134 28.087 88.385 27.79V26.191C87.9481 26.1348 87.5084 26.1035 87.068 26.097C86.253 26.097 85.688 26.223 85.375 26.489C85.062 26.756 84.905 27.1 84.905 27.555C84.905 27.978 85.015 28.291 85.25 28.495C85.47 28.699 85.783 28.809 86.175 28.809C86.567 28.824 86.975 28.715 87.382 28.527ZM92.068 28.056V17.884L94.028 17.727V27.712C94.028 28.072 94.09 28.339 94.216 28.495C94.341 28.652 94.545 28.73 94.811 28.73C94.937 28.73 95.109 28.7 95.328 28.636L95.564 30.047C95.3436 30.1374 95.1111 30.1954 94.874 30.219C94.6204 30.2626 94.3634 30.2837 94.106 30.282C92.758 30.282 92.068 29.546 92.068 28.056ZM96.974 28.056V17.884L98.934 17.727V27.712C98.934 28.072 98.996 28.339 99.122 28.495C99.247 28.652 99.451 28.73 99.717 28.73C99.843 28.73 100.015 28.7 100.234 28.636L100.47 30.047C100.25 30.1373 100.017 30.1952 99.78 30.219C99.5264 30.2626 99.2694 30.2837 99.012 30.282C97.664 30.282 96.974 29.546 96.974 28.056ZM108.636 26.066H103.009C103.103 27.868 103.965 28.762 105.579 28.762C105.987 28.762 106.394 28.715 106.818 28.621C107.235 28.5234 107.644 28.3923 108.04 28.229L108.463 29.577C107.507 30.047 106.426 30.282 105.219 30.282C104.31 30.282 103.526 30.11 102.899 29.765C102.283 29.4294 101.79 28.9079 101.488 28.275C101.175 27.633 101.018 26.85 101.018 25.925C101.018 24.969 101.191 24.154 101.52 23.464C101.818 22.8142 102.304 22.2685 102.915 21.897C103.51 21.537 104.2 21.348 104.984 21.348C105.799 21.348 106.473 21.536 107.021 21.912C107.567 22.2862 107.987 22.8158 108.228 23.432C108.495 24.06 108.62 24.765 108.62 25.533V26.066H108.636V26.066ZM106.708 24.812C106.677 24.122 106.504 23.605 106.191 23.276C105.877 22.931 105.47 22.759 104.952 22.759C104.451 22.759 104.043 22.931 103.698 23.276C103.369 23.621 103.15 24.138 103.056 24.812H106.708ZM110.219 23.683C110.219 23.213 110.203 22.493 110.156 21.52H112.006C112.037 21.755 112.068 22.053 112.1 22.382C112.131 22.712 112.147 22.978 112.162 23.197C112.397 22.821 112.617 22.507 112.836 22.241C113.056 21.975 113.322 21.771 113.604 21.614C113.902 21.458 114.231 21.364 114.607 21.364C114.871 21.3594 115.135 21.391 115.391 21.458L115.14 23.166C114.932 23.1007 114.716 23.069 114.498 23.072C114.028 23.072 113.636 23.197 113.291 23.432C112.946 23.668 112.57 24.059 112.178 24.608V30.141H110.219V23.683ZM116.567 33.636C116.328 33.5971 116.092 33.5396 115.861 33.464L116.222 32.022C116.347 32.053 116.52 32.1 116.723 32.132C116.927 32.162 117.115 32.179 117.303 32.179C118.181 32.179 118.824 31.614 119.263 30.501L119.388 30.188L116.222 21.505H118.338L119.937 26.348C120.203 27.178 120.36 27.806 120.438 28.26C120.594 27.6323 120.772 27.0102 120.971 26.395L122.586 21.505H124.576L121.41 30.219C121.112 31.05 120.783 31.709 120.438 32.21C120.093 32.712 119.686 33.088 119.216 33.339C118.745 33.589 118.181 33.699 117.507 33.699C117.192 33.719 116.876 33.6978 116.567 33.636V33.636ZM41.63 7.31997H45.188L45.094 8.18197H42.68V9.84397H44.953V10.643H42.68V12.477H45.22L45.126 13.339H41.63V7.31997ZM47.633 10.282L45.753 7.33497H46.928L48.198 9.49797L49.53 7.33497H50.674L48.809 10.251L50.815 13.37H49.608L48.166 11.003L46.709 13.37H45.61L47.632 10.282H47.633ZM51.614 7.31997H53.244C54.013 7.31997 54.592 7.47597 55 7.78997C55.407 8.10297 55.611 8.55797 55.611 9.13797C55.611 9.54497 55.517 9.88997 55.345 10.188C55.1609 10.4872 54.8942 10.7269 54.577 10.878C54.247 11.034 53.871 11.113 53.464 11.113C53.201 11.1077 52.9388 11.0813 52.68 11.034V13.354H51.646V7.31997H51.614V7.31997ZM54.232 10.015C54.452 9.81197 54.562 9.52997 54.562 9.16897C54.562 8.79297 54.452 8.52597 54.216 8.36897C53.996 8.21297 53.652 8.11897 53.213 8.11897H52.664V10.266C52.931 10.313 53.119 10.329 53.26 10.329C53.683 10.313 54.013 10.219 54.232 10.015ZM56.63 7.31997H57.665V12.46H60.157L60.063 13.354H56.614V7.31997H56.63V7.31997ZM61.755 13.056C61.319 12.8079 60.9651 12.4377 60.737 11.991C60.502 11.536 60.392 11.003 60.392 10.391C60.392 9.74897 60.517 9.20097 60.768 8.73097C61.018 8.26097 61.379 7.88397 61.85 7.63297C62.32 7.36697 62.868 7.24097 63.511 7.24097C64.122 7.24097 64.639 7.36697 65.078 7.61797C65.518 7.86797 65.846 8.22797 66.082 8.68297C66.317 9.13797 66.426 9.67097 66.426 10.266C66.426 10.909 66.301 11.473 66.05 11.959C65.8087 12.4254 65.4319 12.8079 64.969 13.056C64.4614 13.3212 63.8957 13.456 63.323 13.448C62.712 13.433 62.194 13.308 61.755 13.056V13.056ZM64.451 12.32C64.751 12.1245 64.9817 11.8393 65.11 11.505C65.2595 11.1311 65.3342 10.7316 65.33 10.329C65.33 9.88997 65.266 9.51397 65.141 9.16897C65.0262 8.84083 64.8128 8.55619 64.53 8.35397C64.248 8.14997 63.887 8.05597 63.448 8.05597C63.025 8.05597 62.665 8.16597 62.367 8.36997C62.069 8.57397 61.85 8.83997 61.709 9.18497C61.567 9.52997 61.489 9.90497 61.489 10.313C61.489 10.753 61.552 11.144 61.693 11.489C61.833 11.834 62.038 12.1 62.336 12.304C62.618 12.508 62.978 12.602 63.401 12.602C63.7718 12.6191 64.1387 12.5206 64.451 12.32V12.32ZM67.57 7.31997H69.452C70.142 7.31997 70.658 7.45997 71.019 7.72697C71.379 8.00897 71.552 8.40097 71.552 8.90297C71.5578 9.17733 71.5016 9.44947 71.3877 9.69913C71.2738 9.94879 71.105 10.1695 70.894 10.345C70.7213 10.4916 70.5253 10.6082 70.314 10.69L72.164 13.354H70.956L69.389 10.956H68.621V13.354H67.586V7.31997H67.571H67.57ZM69.2 10.172C69.451 10.172 69.671 10.125 69.875 10.032C70.063 9.93697 70.22 9.79597 70.329 9.60797C70.439 9.43597 70.486 9.21597 70.486 8.98097C70.486 8.68297 70.392 8.46397 70.204 8.32297C70.016 8.18197 69.734 8.11897 69.374 8.11897H68.621V10.188H69.201V10.172H69.2ZM72.978 7.31997H76.536L76.442 8.18197H74.028V9.84297H76.301V10.643H74.028V12.476H76.568L76.474 13.338H72.978V7.31997V7.31997ZM80.408 7.31997H81.442V13.354H80.408V7.31997ZM84.2 8.19697H82.335L82.429 7.31997H87.116L87.022 8.19697H85.25V13.354H84.216V8.19697H84.2V8.19697ZM91.63 13.056C91.194 12.8079 90.8401 12.4377 90.612 11.991C90.376 11.536 90.267 11.003 90.267 10.391C90.267 9.74897 90.392 9.20097 90.643 8.73097C90.893 8.26097 91.254 7.88397 91.724 7.63297C92.194 7.36697 92.744 7.24097 93.386 7.24097C93.997 7.24097 94.514 7.36697 94.953 7.61797C95.392 7.86797 95.721 8.22797 95.956 8.68297C96.191 9.13797 96.301 9.67097 96.301 10.266C96.301 10.909 96.176 11.473 95.925 11.959C95.675 12.429 95.314 12.806 94.843 13.056C94.3357 13.3211 93.7704 13.4558 93.198 13.448C92.602 13.433 92.069 13.308 91.63 13.056V13.056ZM94.326 12.32C94.626 12.1245 94.8567 11.8393 94.985 11.505C95.1342 11.131 95.2086 10.7315 95.204 10.329C95.204 9.88997 95.141 9.51397 95.016 9.16897C94.9012 8.84083 94.6878 8.55619 94.405 8.35397C94.122 8.14997 93.762 8.05597 93.323 8.05597C92.9 8.05597 92.539 8.16597 92.242 8.36997C91.944 8.57397 91.724 8.83997 91.583 9.18497C91.443 9.52997 91.363 9.90497 91.363 10.313C91.363 10.753 91.427 11.144 91.568 11.489C91.708 11.834 91.912 12.1 92.21 12.304C92.492 12.508 92.853 12.602 93.276 12.602C93.684 12.617 94.044 12.508 94.326 12.32V12.32ZM97.445 7.31997H98.636L101.614 11.99C101.583 11.552 101.583 11.144 101.583 10.768V7.31997H102.555V13.354H101.395L98.37 8.60397C98.401 9.13797 98.417 9.62397 98.417 10.031V13.354H97.445V7.31997V7.31997Z" fill="white"/>
<path fill-rule="evenodd" clip-rule="evenodd" d="M27.022 7.27295H15.893C10.658 7.27295 8.73001 9.18495 8.73001 14.4359V25.5639C8.73001 30.7989 10.643 32.727 15.893 32.727H27.022C32.257 32.727 34.185 30.8149 34.185 25.5639V14.4359C34.169 9.18595 32.257 7.27295 27.022 7.27295V7.27295Z" fill="#C8102E"/>
<path d="M13.777 20H14.451V23.323H13.777V21.975H12.257V23.323H11.583V20H12.257V21.348H13.777V20ZM17.57 21.896C17.57 22.429 17.304 22.727 16.818 22.727C16.332 22.727 16.05 22.429 16.05 21.881V20H15.376V21.896C15.376 22.836 15.893 23.37 16.802 23.37C17.712 23.37 18.244 22.821 18.244 21.865V19.984H17.57V21.896ZM25.376 22.288L24.624 20H24.075L23.323 22.288L22.586 20H21.866L23.025 23.323H23.589L24.342 21.143L25.094 23.323H25.658L26.818 20H26.113L25.376 22.288V22.288ZM28.009 21.896H29.232V21.285H28.009V20.611H29.796V20H27.351V23.323H29.859V22.711H28.009V21.896V21.896ZM30.674 23.323H31.332V20H30.674V23.323ZM19.577 22.633L19.279 23.323H18.589L20.047 20H20.642L22.1 23.323H21.395L21.097 22.633H19.577V22.633ZM19.827 22.022H20.847L20.329 20.83L19.827 22.022ZM21.458 15.768C20.3358 15.7675 19.2597 15.3214 18.4661 14.5279C17.6726 13.7344 17.2265 12.6582 17.226 11.536H17.822C17.8228 12.5001 18.2061 13.4245 18.8878 14.1062C19.5696 14.7879 20.4939 15.1712 21.458 15.172C22.4223 15.1715 23.3469 14.7883 24.0288 14.1065C24.7107 13.4248 25.0942 12.5003 25.095 11.536H25.69C25.6866 12.6574 25.2396 13.7318 24.4467 14.5247C23.6538 15.3176 22.5793 15.7646 21.458 15.768V15.768Z" fill="white"/>
</svg>
