<svg width="108" height="140" viewBox="0 0 108 140" fill="none" xmlns="http://www.w3.org/2000/svg">
<g id="download (2) 1" clip-path="url(#clip0_1_126)">
<g id="Layer 1 2">
<path id="Fill 1 2" fill-rule="evenodd" clip-rule="evenodd" d="M108 51.5609C108 78.3867 86.4003 99.9867 59.5745 99.9867C32.7487 99.9867 11.1487 78.3867 11.1487 51.5609C11.1487 24.7351 32.9229 3.13507 59.5745 3.13507C86.4003 3.13507 108 24.9093 108 51.5609Z" fill="#EEEEF6"/>
<path id="Vector" d="M60.6191 91.6253C68.6041 91.6253 75.0772 85.1522 75.0772 77.1672C75.0772 69.1823 68.6041 62.7092 60.6191 62.7092C52.6341 62.7092 46.161 69.1823 46.161 77.1672C46.161 85.1522 52.6341 91.6253 60.6191 91.6253Z" fill="#3BE893"/>
<path id="Vector_2" d="M27.5226 15.3281C29.2645 15.6765 31.0064 16.0249 32.9226 16.0249C41.8064 16.0249 49.6452 10.9733 53.4774 3.65717C43.7226 4.87652 34.6645 9.05717 27.5226 15.3281ZM11.4968 56.0894C12.5419 66.7152 16.8968 76.2959 23.5161 83.7862C24.2129 81.6959 24.5613 79.4314 24.5613 76.9926C24.5613 67.7604 19.1613 59.9217 11.4968 56.0894Z" fill="#3BE893"/>
<path id="Vector_3" fill-rule="evenodd" clip-rule="evenodd" d="M63.9295 3.30914C58.0069 9.58011 54.1747 18.1156 54.1747 27.522C54.1747 47.0317 69.8521 62.7091 89.3618 62.7091C95.9811 62.7091 102.252 60.793 107.652 57.4833C107.826 55.5672 108 53.4769 108 51.5608C108 26.3027 88.665 5.57366 63.9295 3.30914Z" fill="#3BE893"/>
<path id="Vector_4" d="M9.40645 19.5091H53.6516C58.1806 19.5091 61.6645 23.1672 61.6645 27.522V128.903C61.6645 133.432 58.0065 136.916 53.6516 136.916H9.40645C4.87742 136.916 1.39355 133.257 1.39355 128.903V27.6962C1.21935 23.1672 4.87742 19.5091 9.40645 19.5091Z" fill="#E6E7EB"/>
<g id="Group">
<path id="Vector_5" d="M-1.56754 119.671H64.626V139.529H-1.56754V119.671ZM-0.696568 12.3675H63.4067V32.2256H-0.696568V12.3675Z" fill="#6675FF"/>
</g>
<path id="Vector_6" d="M31.5293 133.083C34.2231 133.083 36.4067 130.9 36.4067 128.206C36.4067 125.512 34.2231 123.329 31.5293 123.329C28.8356 123.329 26.6519 125.512 26.6519 128.206C26.6519 130.9 28.8356 133.083 31.5293 133.083Z" fill="white"/>
</g>
</g>
<defs>
<clipPath id="clip0_1_126">
<rect width="108" height="139.529" fill="white"/>
</clipPath>
</defs>
</svg>
