<svg width="145" height="115" viewBox="0 0 145 115" fill="none" xmlns="http://www.w3.org/2000/svg">
<g id="download (1) 1" clip-path="url(#clip0_1_103)">
<g id="Layer 2">
<g id="Layer 1">
<path id="Vector" d="M40.496 28.09L112.6 0.339481C113.234 0.0951444 113.911 -0.0225323 114.592 -0.00682946C115.273 0.00887611 115.944 0.15765 116.566 0.431005C117.189 0.704358 117.752 1.09694 118.222 1.58632C118.692 2.07571 119.06 2.65232 119.306 3.28324L127.472 24.2384C127.718 24.8693 127.836 25.5421 127.821 26.2185C127.805 26.8949 127.655 27.5616 127.38 28.1805C127.105 28.7994 126.71 29.3584 126.217 29.8256C125.725 30.2927 125.145 30.6589 124.51 30.9033L52.4064 58.6538L40.496 28.09Z" fill="#34CF84"/>
<path id="Vector_2" d="M43.2105 26.8189L125.063 12.8506C126.47 12.6106 127.915 12.9357 129.08 13.7544C130.246 14.5732 131.036 15.8186 131.278 17.2165L135.063 39.1224C135.304 40.5204 134.977 41.9565 134.153 43.1147C133.33 44.273 132.076 45.0586 130.67 45.2986L48.8172 59.2669L43.2105 26.8189Z" fill="#3BE994"/>
<path id="Vector_3" d="M133.276 26.2143H41.1269C37.0802 26.2143 33.7997 29.4744 33.7997 33.4961V106.799C33.7997 110.821 37.0802 114.081 41.1269 114.081H133.276C137.323 114.081 140.604 110.821 140.604 106.799V33.4961C140.604 29.4744 137.323 26.2143 133.276 26.2143Z" fill="#E7E8EC"/>
<path id="Vector_4" d="M139.359 54.6053H117.283C114.158 54.6053 111.626 57.1223 111.626 60.2272V80.0837C111.626 83.1885 114.158 85.7055 117.283 85.7055H139.359C142.483 85.7055 145.016 83.1885 145.016 80.0837V60.2272C145.016 57.1223 142.483 54.6053 139.359 54.6053Z" fill="#D1D2DA"/>
<path id="Vector_5" d="M128.313 77.1709C132.212 77.1709 135.372 74.03 135.372 70.1554C135.372 66.2808 132.212 63.1398 128.313 63.1398C124.414 63.1398 121.254 66.2808 121.254 70.1554C121.254 74.03 124.414 77.1709 128.313 77.1709Z" fill="#A7A9B7"/>
<path id="Vector_6" d="M43.8845 106.047H2.19028C0.980624 106.047 0 107.022 0 108.224V111.904C0 113.106 0.980624 114.081 2.19028 114.081H43.8845C45.0941 114.081 46.0748 113.106 46.0748 111.904V108.224C46.0748 107.022 45.0941 106.047 43.8845 106.047Z" fill="#FCCF07"/>
<g id="Group">
<path id="Vector_7" d="M0 111.779H46.4529V114.081H0V111.779Z" fill="#FAB306"/>
</g>
<path id="Vector_8" d="M5.68843 106.047H12.2435V111.779H5.68843V106.047Z" fill="#FCEE8F"/>
<path id="Vector_9" d="M43.8845 98.014H2.19028C0.980624 98.014 0 98.9885 0 100.191V103.871C0 105.073 0.980624 106.047 2.19028 106.047H43.8845C45.0941 106.047 46.0748 105.073 46.0748 103.871V100.191C46.0748 98.9885 45.0941 98.014 43.8845 98.014Z" fill="#FCCF07"/>
<g id="Group_2">
<path id="Vector_10" d="M0 103.745H46.4529V106.047H0V103.745Z" fill="#FAB306"/>
</g>
<path id="Vector_11" d="M5.68843 98.014H12.2435V103.745H5.68843V98.014Z" fill="#FCEE8F"/>
<path id="Vector_12" d="M43.8845 89.9806H2.19028C0.980624 89.9806 0 90.9551 0 92.1573V95.8373C0 97.0395 0.980624 98.014 2.19028 98.014H43.8845C45.0941 98.014 46.0748 97.0395 46.0748 95.8373V92.1573C46.0748 90.9551 45.0941 89.9806 43.8845 89.9806Z" fill="#FCCF07"/>
<g id="Group_3">
<path id="Vector_13" d="M0 95.712H46.4529V98.014H0V95.712Z" fill="#FAB306"/>
</g>
<path id="Vector_14" d="M5.68843 89.9806H12.2435V95.712H5.68843V89.9806Z" fill="#FCEE8F"/>
<path id="Vector_15" d="M43.5063 114.081C56.2295 114.081 66.5437 103.831 66.5437 91.1864C66.5437 78.5421 56.2295 68.2919 43.5063 68.2919C30.7831 68.2919 20.4689 78.5421 20.4689 91.1864C20.4689 103.831 30.7831 114.081 43.5063 114.081Z" fill="#FAB306"/>
<path id="Vector_16" d="M43.5063 110.291C54.1235 110.291 62.7304 101.738 62.7304 91.1864C62.7304 80.6351 54.1235 72.0816 43.5063 72.0816C32.8891 72.0816 24.2822 80.6351 24.2822 91.1864C24.2822 101.738 32.8891 110.291 43.5063 110.291Z" fill="#FCEE8F"/>
<path id="Vector_17" d="M43.5063 104.998C51.182 104.998 57.4044 98.8145 57.4044 91.1864C57.4044 83.5584 51.182 77.3746 43.5063 77.3746C35.8306 77.3746 29.6082 83.5584 29.6082 91.1864C29.6082 98.8145 35.8306 104.998 43.5063 104.998Z" fill="#FCCF07"/>
</g>
</g>
</g>
<defs>
<clipPath id="clip0_1_103">
<rect width="145" height="114.081" fill="white"/>
</clipPath>
</defs>
</svg>
