<svg width="170" height="66" viewBox="0 0 170 66" fill="none" xmlns="http://www.w3.org/2000/svg">
<g id="download 1" clip-path="url(#clip0_1_84)">
<g id="Layer 2">
<g id="Layer 1">
<g id="car clock">
<path id="Vector" d="M147.44 32.7947H141.714V65.3747H147.44C153.724 65.3747 158.892 58.0742 158.892 49.0847C158.892 40.0951 153.667 32.7947 147.44 32.7947Z" fill="#2F313F"/>
<path id="Vector_2" d="M141.7 65.3747C147.977 65.3747 153.066 58.0814 153.066 49.0847C153.066 40.088 147.977 32.7947 141.7 32.7947C135.423 32.7947 130.334 40.088 130.334 49.0847C130.334 58.0814 135.423 65.3747 141.7 65.3747Z" fill="#2F313F"/>
<path id="Vector_3" d="M70.4993 32.7947H64.7735V65.3747H70.4993C76.7834 65.3747 81.8651 58.0742 81.8651 49.0847C81.8651 40.0951 76.7834 32.7947 70.4993 32.7947Z" fill="#2F313F"/>
<path id="Vector_4" d="M64.8164 65.3747C71.0935 65.3747 76.1822 58.0814 76.1822 49.0847C76.1822 40.088 71.0935 32.7947 64.8164 32.7947C58.5393 32.7947 53.4506 40.088 53.4506 49.0847C53.4506 58.0814 58.5393 65.3747 64.8164 65.3747Z" fill="#2F313F"/>
<path id="Vector_5" d="M28.028 35.5145H22.3021V65.3747H28.028C34.3121 65.3747 39.3937 58.0743 39.3937 49.0847C39.3937 40.0951 34.355 35.5145 28.028 35.5145ZM101.92 35.5145H96.194V65.3747H101.92C108.204 65.3747 113.286 58.0743 113.286 49.0847C113.286 40.0951 108.204 35.5145 101.92 35.5145Z" fill="#2F313F"/>
<path id="Vector_6" d="M169.986 40.725V48.9988C170.004 50.3692 169.53 51.7006 168.65 52.7512C167.77 53.8019 166.543 54.5021 165.19 54.7247L151.921 56.8003H51.3178L46.9089 53.1071C42.9437 52.0049 41.9417 22.7459 41.9417 22.7459L42.9294 19.883L47.9395 5.72582C48.6448 5.209 49.3099 4.63957 49.9293 4.02239C50.2974 3.65425 50.6462 3.26724 50.9742 2.86291C53.651 -0.257675 48.6696 -1.20467e-05 53.6224 -1.20467e-05H92.6583C97.7669 0.0268903 102.778 1.39945 107.188 3.97944C108.118 4.49477 109.034 5.06735 109.95 5.68288C110.594 6.11232 111.253 6.59901 111.883 7.11434L131.694 19.8973L164.618 32.7804C166.1 33.3705 167.389 34.3618 168.339 35.6433L168.425 35.7865C169.305 36.9829 169.836 38.4002 169.957 39.8804C169.995 40.1603 170.005 40.4432 169.986 40.725Z" fill="url(#paint0_linear_1_84)"/>
<path id="Vector_7" d="M124.335 40.5819V48.3117C124.335 50.5896 123.43 52.7742 121.819 54.3849C120.208 55.9956 118.024 56.9005 115.746 56.9005H20.0387L12.0369 53.6797C5.2947 51.8331 -0.846257 47.596 0.0985055 39.1074L1.87351 24.9074C2.05805 23.4402 2.69247 22.0663 3.68957 20.9743C4.68667 19.8824 5.9975 19.1261 7.44189 18.8094L7.82838 18.7235C10.6833 18.1372 13.3253 16.7865 15.4724 14.8156L21.8137 8.58875C27.6398 3.30667 34.3962 0 41.8541 0H55.725C60.4154 0.000328807 65.0014 1.38461 68.9087 3.97945C70.9177 5.33692 72.7125 6.98701 74.2337 8.87504L85.442 19.8973L118.809 32.6086C120.427 33.226 121.819 34.3177 122.805 35.7405C123.791 37.1633 124.325 38.8508 124.335 40.5819Z" fill="url(#paint1_linear_1_84)"/>
<path id="Vector_8" d="M22.345 65.3747C28.6222 65.3747 33.7108 58.0814 33.7108 49.0847C33.7108 40.088 28.6222 32.7947 22.345 32.7947C16.0679 32.7947 10.9792 40.088 10.9792 49.0847C10.9792 58.0814 16.0679 65.3747 22.345 65.3747Z" fill="#2F313F"/>
<path id="Vector_9" d="M22.3451 60.0354C26.0212 60.0354 29.0013 55.1326 29.0013 49.0847C29.0013 43.0368 26.0212 38.134 22.3451 38.134C18.6689 38.134 15.6888 43.0368 15.6888 49.0847C15.6888 55.1326 18.6689 60.0354 22.3451 60.0354Z" fill="#A9ABB9"/>
<path id="Vector_10" d="M96.2369 65.3747C102.514 65.3747 107.603 58.0814 107.603 49.0847C107.603 40.088 102.514 32.7947 96.2369 32.7947C89.9598 32.7947 84.8711 40.088 84.8711 49.0847C84.8711 58.0814 89.9598 65.3747 96.2369 65.3747Z" fill="#2F313F"/>
<path id="Vector_11" d="M96.2369 60.0354C99.9131 60.0354 102.893 55.1326 102.893 49.0847C102.893 43.0368 99.9131 38.134 96.2369 38.134C92.5608 38.134 89.5807 43.0368 89.5807 49.0847C89.5807 55.1326 92.5608 60.0354 96.2369 60.0354Z" fill="#A9ABB9"/>
<path id="Vector_12" d="M131.694 19.8973H85.4437L74.2354 8.87502C72.6925 6.98157 70.8732 5.33121 68.8388 3.97943H98.7706C104.26 3.9949 109.629 5.59546 114.23 8.58873L131.694 19.8973Z" fill="#585A68"/>
<path id="Vector_13" d="M85.4437 19.8973H28.715C27.8558 19.8628 27.0267 19.5712 26.3351 19.0602C25.6435 18.5492 25.1212 17.8423 24.8359 17.0311C24.5506 16.2199 24.5154 15.3418 24.7349 14.5103C24.9543 13.6789 25.4183 12.9325 26.0668 12.3678L30.0606 9.23288C34.286 5.84843 39.534 3.99648 44.9478 3.97943H68.8388C70.8732 5.33121 72.6924 6.98157 74.2354 8.87502L85.4437 19.8973Z" fill="#2F313F"/>
<path id="Vector_14" d="M169.986 40.725V43.5879H164.16C163.72 43.5835 163.287 43.4779 162.895 43.2793C162.503 43.0807 162.162 42.7944 161.898 42.4427L159.593 39.3794C159.327 39.0284 158.982 38.7437 158.588 38.5476C158.193 38.3514 157.758 38.2491 157.317 38.2485H137.42C136.982 38.2513 136.55 38.3547 136.158 38.5507C135.765 38.7468 135.424 39.0303 135.158 39.3794L132.854 42.4427C132.588 42.7964 132.245 43.0838 131.85 43.2824C131.455 43.4811 131.02 43.5857 130.578 43.5879H119.326C118.882 43.5823 118.445 43.4734 118.05 43.2697C117.655 43.0659 117.313 42.773 117.05 42.4141L115.519 40.3098C115.216 39.8845 115.035 39.3845 114.996 38.8638C114.957 38.3431 115.061 37.8216 115.296 37.3558C115.532 36.89 115.891 36.4975 116.334 36.2209C116.777 35.9443 117.287 35.794 117.809 35.7864H168.397C169.277 36.9829 169.807 38.4002 169.928 39.8804C169.976 40.1593 169.995 40.4422 169.986 40.725Z" fill="#A9ABB9"/>
</g>
</g>
</g>
</g>
<defs>
<linearGradient id="paint0_linear_1_84" x1="105.971" y1="-1.20512e-05" x2="105.971" y2="56.8432" gradientUnits="userSpaceOnUse">
<stop stop-color="#EAE9EE"/>
<stop offset="0.47" stop-color="#E7E6EC"/>
<stop offset="0.8" stop-color="#DEDEE4"/>
<stop offset="1" stop-color="#D4D4DB"/>
</linearGradient>
<linearGradient id="paint1_linear_1_84" x1="62.1665" y1="-0.243348" x2="62.1665" y2="61.3666" gradientUnits="userSpaceOnUse">
<stop stop-color="#DCDCE3"/>
<stop offset="0.33" stop-color="#D8D8DF"/>
<stop offset="0.66" stop-color="#CCCCD5"/>
<stop offset="0.99" stop-color="#B8B8C3"/>
<stop offset="1" stop-color="#B7B7C2"/>
</linearGradient>
<clipPath id="clip0_1_84">
<rect width="170" height="65.3747" fill="white"/>
</clipPath>
</defs>
</svg>
