<svg width="40" height="40" viewBox="0 0 40 40" fill="none" xmlns="http://www.w3.org/2000/svg">
<g id="Facebook" clip-path="url(#clip0_1_214)">
<g id="Group">
<path id="Vector" d="M20 39.5C30.7696 39.5 39.5 30.7696 39.5 20C39.5 9.23045 30.7696 0.5 20 0.5C9.23045 0.5 0.5 9.23045 0.5 20C0.5 30.7696 9.23045 39.5 20 39.5Z" stroke="#2F313F"/>
<path id="Vector_2" d="M21.722 29.9999V20.8899H24.797L25.256 17.3229H21.722V15.0529C21.722 14.0209 22.011 13.3229 23.489 13.3229H25.378V10.1379C24.467 10.0439 23.552 9.99794 22.636 9.99994C19.919 9.99994 18.066 11.6569 18.066 14.6999V17.3229H15V20.8899H18.067V29.9999H21.722Z" fill="#2F313F"/>
</g>
</g>
<defs>
<clipPath id="clip0_1_214">
<rect width="40" height="40" fill="white"/>
</clipPath>
</defs>
</svg>
