<svg width="155" height="60" viewBox="0 0 155 60" fill="none" xmlns="http://www.w3.org/2000/svg">
<g id="Google Play" clip-path="url(#clip0_1_171)">
<path id="Vector" d="M140 10H15C12.2386 10 10 12.2386 10 15V45C10 47.7614 12.2386 50 15 50H140C142.761 50 145 47.7614 145 45V15C145 12.2386 142.761 10 140 10Z" fill="black"/>
<path id="Vector_2" d="M140 10.8C141.114 10.8 142.182 11.2425 142.97 12.0302C143.758 12.8178 144.2 13.8861 144.2 15V45C144.2 46.1139 143.758 47.1822 142.97 47.9698C142.182 48.7575 141.114 49.2 140 49.2H15C13.8861 49.2 12.8178 48.7575 12.0302 47.9698C11.2425 47.1822 10.8 46.1139 10.8 45V15C10.8 13.8861 11.2425 12.8178 12.0302 12.0302C12.8178 11.2425 13.8861 10.8 15 10.8H140ZM140 10H15C13.6739 10 12.4021 10.5268 11.4645 11.4645C10.5268 12.4021 10 13.6739 10 15V45C10 46.3261 10.5268 47.5979 11.4645 48.5355C12.4021 49.4732 13.6739 50 15 50H140C141.326 50 142.598 49.4732 143.536 48.5355C144.473 47.5979 145 46.3261 145 45V15C145 13.6739 144.473 12.4021 143.536 11.4645C142.598 10.5268 141.326 10 140 10Z" fill="#A6A6A6"/>
<path id="Vector_3" d="M57.42 20.24C57.437 20.6068 57.3793 20.9732 57.2504 21.317C57.1214 21.6608 56.924 21.9748 56.67 22.24C56.3864 22.5346 56.0439 22.7661 55.6649 22.9194C55.2858 23.0728 54.8787 23.1445 54.47 23.13C53.85 23.1251 53.2452 22.9374 52.7314 22.5903C52.2176 22.2432 51.8177 21.7523 51.5817 21.1789C51.3457 20.6055 51.2842 19.9752 51.4049 19.3671C51.5256 18.7589 51.823 18.1998 52.26 17.76C52.5472 17.4668 52.8915 17.2356 53.2717 17.0808C53.6518 16.926 54.0597 16.8508 54.47 16.86C54.8928 16.8586 55.3114 16.9436 55.7 17.11C56.0619 17.2559 56.384 17.4855 56.64 17.78L56.11 18.31C55.9104 18.0726 55.6584 17.8848 55.3737 17.7616C55.0891 17.6384 54.7797 17.583 54.47 17.6C54.1577 17.5984 53.8482 17.66 53.5602 17.781C53.2722 17.9019 53.0116 18.0798 52.7941 18.3039C52.5765 18.528 52.4064 18.7938 52.294 19.0852C52.1816 19.3767 52.1292 19.6878 52.14 20C52.1335 20.4661 52.2651 20.9237 52.5183 21.3151C52.7716 21.7065 53.1351 22.0142 53.5629 22.1992C53.9908 22.3843 54.4639 22.4385 54.9226 22.355C55.3812 22.2714 55.8048 22.054 56.14 21.73C56.4477 21.3965 56.6252 20.9635 56.64 20.51H54.47V19.79H57.38C57.4067 19.9385 57.4201 20.0891 57.42 20.24ZM62 17.74H59.3V19.64H61.76V20.36H59.3V22.26H62V23H58.5V17H62V17.74ZM65.28 23H64.51V17.74H62.83V17H67V17.74H65.28V23ZM69.94 23V17H70.71V23H69.94ZM74.13 23H73.36V17.74H71.68V17H75.8V17.74H74.13V23ZM83.61 22.22C83.0254 22.8013 82.2345 23.1276 81.41 23.1276C80.5856 23.1276 79.7946 22.8013 79.21 22.22C78.6418 21.6185 78.3252 20.8224 78.3252 19.995C78.3252 19.1675 78.6418 18.3714 79.21 17.77C79.4982 17.4797 79.8409 17.2493 80.2185 17.0921C80.5961 16.9349 81.001 16.854 81.41 16.854C81.819 16.854 82.224 16.9349 82.6015 17.0921C82.9791 17.2493 83.3219 17.4797 83.61 17.77C84.1805 18.3703 84.4986 19.1668 84.4986 19.995C84.4986 20.8231 84.1805 21.6196 83.61 22.22ZM79.78 21.72C80.2129 22.1511 80.799 22.3931 81.41 22.3931C82.021 22.3931 82.6071 22.1511 83.04 21.72C83.4673 21.249 83.7039 20.6359 83.7039 20C83.7039 19.3641 83.4673 18.751 83.04 18.28C82.6071 17.8488 82.021 17.6068 81.41 17.6068C80.799 17.6068 80.2129 17.8488 79.78 18.28C79.3528 18.751 79.1161 19.3641 79.1161 20C79.1161 20.6359 79.3528 21.249 79.78 21.72ZM85.58 23V17H86.52L89.44 21.67V17H90.21V23H89.41L86.36 18.11V23H85.58Z" fill="white" stroke="white" stroke-width="0.2" stroke-miterlimit="10"/>
<path id="Vector_4" d="M78.14 31.75C77.3003 31.7539 76.4806 32.0066 75.7843 32.476C75.088 32.9453 74.5464 33.6105 74.2278 34.3874C73.9092 35.1643 73.8279 36.0182 73.9941 36.8413C74.1604 37.6644 74.5667 38.4198 75.1619 39.0122C75.757 39.6046 76.5143 40.0074 77.3382 40.1697C78.1621 40.3321 79.0156 40.2468 79.791 39.9245C80.5664 39.6023 81.229 39.0575 81.6951 38.3591C82.1612 37.6606 82.41 36.8397 82.41 36C82.4182 35.4379 82.3131 34.88 82.1012 34.3593C81.8892 33.8387 81.5747 33.366 81.1763 32.9695C80.7778 32.573 80.3037 32.2606 79.7821 32.0511C79.2605 31.8416 78.702 31.7392 78.14 31.75ZM78.14 38.58C77.6236 38.6161 77.1082 38.496 76.661 38.2354C76.2137 37.9747 75.8552 37.5855 75.632 37.1184C75.4089 36.6513 75.3314 36.1279 75.4097 35.6161C75.488 35.1044 75.7184 34.6281 76.071 34.249C76.4236 33.87 76.882 33.6058 77.3868 33.4908C77.8915 33.3758 78.4192 33.4152 78.9012 33.6041C79.3832 33.7929 79.7973 34.1224 80.0895 34.5497C80.3818 34.977 80.5387 35.4823 80.54 36C80.5561 36.328 80.5064 36.6559 80.3937 36.9644C80.2811 37.2729 80.1078 37.5557 79.8841 37.7962C79.6605 38.0366 79.3909 38.2299 79.0914 38.3645C78.7918 38.4991 78.4683 38.5724 78.14 38.58ZM68.83 31.75C67.9899 31.752 67.1692 32.0029 66.4716 32.4711C65.774 32.9393 65.2308 33.6037 64.9107 34.3805C64.5905 35.1573 64.5078 36.0115 64.6729 36.8352C64.838 37.659 65.2436 38.4153 65.8383 39.0087C66.4331 39.6021 67.1904 40.0059 68.0145 40.1691C68.8387 40.3322 69.6927 40.2475 70.4687 39.9255C71.2447 39.6036 71.9079 39.0588 72.3744 38.3601C72.841 37.6614 73.09 36.8401 73.09 36C73.0982 35.4379 72.9931 34.88 72.7812 34.3593C72.5692 33.8387 72.2547 33.366 71.8563 32.9695C71.4578 32.573 70.9837 32.2606 70.4621 32.0511C69.9405 31.8416 69.382 31.7392 68.82 31.75H68.83ZM68.83 38.58C68.3133 38.6181 67.7971 38.4999 67.3486 38.2406C66.9001 37.9812 66.5401 37.5929 66.3154 37.1261C66.0906 36.6593 66.0117 36.1356 66.0887 35.6233C66.1658 35.111 66.3952 34.6338 66.7473 34.2537C67.0994 33.8736 67.5577 33.6084 68.0627 33.4924C68.5676 33.3765 69.0958 33.4153 69.5784 33.6037C70.061 33.7921 70.4757 34.1215 70.7685 34.5489C71.0613 34.9763 71.2186 35.4819 71.22 36C71.2361 36.328 71.1864 36.6559 71.0737 36.9644C70.9611 37.2729 70.7878 37.5557 70.5641 37.7962C70.3405 38.0366 70.0709 38.2299 69.7714 38.3645C69.4718 38.4991 69.1483 38.5724 68.82 38.58H68.83ZM57.74 33.06V34.86H62.06C61.9923 35.7078 61.6399 36.5078 61.06 37.13C60.6278 37.5702 60.1082 37.9151 59.5347 38.1425C58.9612 38.3698 58.3464 38.4746 57.73 38.45C56.457 38.45 55.2361 37.9443 54.3359 37.0441C53.4357 36.1439 52.93 34.923 52.93 33.65C52.93 32.377 53.4357 31.1561 54.3359 30.2559C55.2361 29.3557 56.457 28.85 57.73 28.85C58.9478 28.8301 60.1238 29.294 61 30.14L62.27 28.87C61.6785 28.271 60.9728 27.7969 60.1946 27.4757C59.4165 27.1544 58.5818 26.9927 57.74 27C56.851 26.9654 55.9642 27.1106 55.1326 27.427C54.3011 27.7433 53.542 28.2243 52.9008 28.841C52.2596 29.4577 51.7494 30.1976 51.401 31.0162C51.0526 31.8348 50.873 32.7153 50.873 33.605C50.873 34.4947 51.0526 35.3752 51.401 36.1938C51.7494 37.0124 52.2596 37.7522 52.9008 38.369C53.542 38.9857 54.3011 39.4667 55.1326 39.783C55.9642 40.0994 56.851 40.2446 57.74 40.21C58.596 40.2487 59.4503 40.1036 60.2454 39.7845C61.0406 39.4654 61.7582 38.9796 62.35 38.36C63.3977 37.2089 63.9571 35.6958 63.91 34.14C63.9132 33.761 63.8797 33.3825 63.81 33.01L57.74 33.06ZM103.05 34.46C102.789 33.6927 102.302 33.0228 101.652 32.5388C101.002 32.0549 100.22 31.7798 99.41 31.75C98.863 31.7489 98.3216 31.8601 97.8192 32.0765C97.3169 32.293 96.8643 32.6102 96.4894 33.0085C96.1145 33.4069 95.8253 33.8778 95.6396 34.3924C95.454 34.9069 95.3758 35.4541 95.41 36C95.3979 36.5589 95.4985 37.1145 95.7059 37.6337C95.9133 38.1528 96.2232 38.6249 96.6171 39.0216C97.011 39.4183 97.4808 39.7315 97.9985 39.9426C98.5161 40.1536 99.071 40.2582 99.63 40.25C100.33 40.2538 101.019 40.084 101.637 39.7559C102.255 39.4278 102.781 38.9516 103.17 38.37L101.72 37.37C101.504 37.7308 101.197 38.0292 100.831 38.236C100.465 38.4429 100.051 38.5511 99.63 38.55C99.1968 38.5665 98.7687 38.4523 98.4013 38.2222C98.034 37.9922 97.7443 37.6569 97.57 37.26L103.26 34.91L103.05 34.46ZM97.25 35.88C97.2297 35.5707 97.2714 35.2604 97.3725 34.9674C97.4737 34.6744 97.6322 34.4045 97.839 34.1736C98.0457 33.9426 98.2965 33.7553 98.5765 33.6224C98.8566 33.4896 99.1604 33.414 99.47 33.4C99.7926 33.3787 100.114 33.4527 100.395 33.6127C100.676 33.7727 100.904 34.0117 101.05 34.3L97.25 35.88ZM92.63 40H94.5V27.5H92.63V40ZM89.57 32.7H89.5C89.2182 32.3849 88.8729 32.1329 88.4869 31.9606C88.1009 31.7882 87.6828 31.6994 87.26 31.7C86.1672 31.753 85.1367 32.2244 84.382 33.0166C83.6273 33.8087 83.2063 34.8609 83.2063 35.955C83.2063 37.0491 83.6273 38.1013 84.382 38.8934C85.1367 39.6856 86.1672 40.157 87.26 40.21C87.6838 40.2171 88.1039 40.1313 88.491 39.9585C88.878 39.7857 89.2224 39.5302 89.5 39.21H89.56V39.82C89.56 41.45 88.69 42.32 87.29 42.32C86.8237 42.3091 86.3712 42.1597 85.9901 41.8908C85.6091 41.6219 85.3166 41.2456 85.15 40.81L83.52 41.49C83.8268 42.2364 84.3496 42.874 85.0213 43.3212C85.6931 43.7685 86.4831 44.0048 87.29 44C89.48 44 91.29 42.71 91.29 39.57V32H89.57V32.7ZM87.43 38.58C86.785 38.5231 86.1846 38.2267 85.7473 37.7492C85.31 37.2716 85.0674 36.6475 85.0674 36C85.0674 35.3524 85.31 34.7284 85.7473 34.2508C86.1846 33.7733 86.785 33.4768 87.43 33.42C87.7498 33.4364 88.0631 33.5167 88.3515 33.656C88.6398 33.7954 88.8973 33.9911 89.1089 34.2315C89.3204 34.4719 89.4817 34.7523 89.5832 35.056C89.6847 35.3597 89.7244 35.6807 89.7 36C89.7273 36.3207 89.6892 36.6436 89.5882 36.9491C89.4871 37.2547 89.3251 37.5366 89.112 37.7778C88.8988 38.019 88.639 38.2144 88.3482 38.3523C88.0574 38.4902 87.7416 38.5676 87.42 38.58H87.43ZM111.81 27.5H107.34V40H109.21V35.26H111.82C112.353 35.2983 112.888 35.2264 113.392 35.0487C113.896 34.8711 114.358 34.5915 114.749 34.2275C115.14 33.8635 115.452 33.4227 115.665 32.9328C115.879 32.4429 115.989 31.9143 115.989 31.38C115.989 30.8457 115.879 30.3171 115.665 29.8272C115.452 29.3373 115.14 28.8965 114.749 28.5325C114.358 28.1685 113.896 27.8889 113.392 27.7113C112.888 27.5336 112.353 27.4617 111.82 27.5H111.81ZM111.81 33.5H109.2V29.24H111.85C112.419 29.24 112.964 29.466 113.367 29.8683C113.769 30.2705 113.995 30.8161 113.995 31.385C113.995 31.9539 113.769 32.4995 113.367 32.9017C112.964 33.304 112.419 33.53 111.85 33.53L111.81 33.5ZM123.34 31.7C122.659 31.6593 121.981 31.8184 121.39 32.1577C120.798 32.497 120.319 33.0018 120.01 33.61L121.67 34.3C121.834 33.9983 122.082 33.7508 122.383 33.5874C122.685 33.4241 123.028 33.352 123.37 33.38C123.607 33.3523 123.848 33.3721 124.078 33.4383C124.307 33.5045 124.521 33.6158 124.708 33.7657C124.894 33.9156 125.048 34.101 125.162 34.3112C125.276 34.5214 125.346 34.7522 125.37 34.99V35.12C124.769 34.802 124.1 34.6371 123.42 34.64C121.63 34.64 119.82 35.64 119.82 37.45C119.838 37.8359 119.933 38.2144 120.099 38.563C120.265 38.9117 120.5 39.2234 120.789 39.4798C121.078 39.7362 121.416 39.932 121.782 40.0557C122.148 40.1794 122.535 40.2285 122.92 40.2C123.391 40.2338 123.862 40.1402 124.285 39.9291C124.707 39.718 125.065 39.397 125.32 39H125.38V40H127.18V35.19C127.18 33 125.52 31.73 123.39 31.73L123.34 31.7ZM123.11 38.55C122.5 38.55 121.65 38.24 121.65 37.49C121.65 36.49 122.71 36.16 123.65 36.16C124.244 36.1453 124.831 36.2904 125.35 36.58C125.287 37.1214 125.031 37.622 124.629 37.9895C124.227 38.357 123.705 38.5667 123.16 38.58L123.11 38.55ZM133.74 32L131.6 37.42H131.54L129.32 32H127.32L130.65 39.58L128.75 43.79H130.7L135.82 32H133.74ZM116.93 40H118.8V27.5H116.93V40Z" fill="white"/>
<path id="Vector_5" d="M20.44 17.54C20.1141 17.9311 19.9495 18.4318 19.98 18.94V41.06C19.9495 41.5682 20.1141 42.0689 20.44 42.46L20.51 42.53L32.9 30.15V29.86L20.51 17.47L20.44 17.54Z" fill="url(#paint0_linear_1_171)"/>
<path id="Vector_6" d="M37 34.28L32.9 30.15V29.86L37 25.72L37.09 25.77L42 28.56C43.4 29.35 43.4 30.65 42 31.45L37.11 34.23L37 34.28Z" fill="url(#paint1_linear_1_171)"/>
<path id="Vector_7" d="M37.12 34.22L32.9 30L20.44 42.46C20.7254 42.7109 21.0894 42.8541 21.4692 42.8651C21.849 42.876 22.2207 42.754 22.52 42.52L37.13 34.22" fill="url(#paint2_linear_1_171)"/>
<path id="Vector_8" d="M37.12 25.78L22.51 17.48C22.2106 17.2461 21.839 17.124 21.4592 17.135C21.0794 17.1459 20.7154 17.2892 20.43 17.54L32.9 30L37.12 25.78Z" fill="url(#paint3_linear_1_171)"/>
<path id="Vector_9" opacity="0.2" d="M37 34.13L22.51 42.38C22.2213 42.5959 21.8705 42.7125 21.51 42.7125C21.1495 42.7125 20.7987 42.5959 20.51 42.38L20.44 42.45L20.51 42.52C20.7981 42.7374 21.1491 42.855 21.51 42.855C21.8709 42.855 22.2219 42.7374 22.51 42.52L37.12 34.22L37 34.13Z" fill="black"/>
<path id="Vector_10" opacity="0.12" d="M20.44 42.32C20.1141 41.9289 19.9495 41.4282 19.98 40.92V41.07C19.9495 41.5782 20.1141 42.0789 20.44 42.47L20.51 42.4L20.44 42.32ZM42 31.3L37 34.13L37.09 34.22L42 31.44C42.2786 31.3091 42.5177 31.1071 42.6933 30.8543C42.8689 30.6014 42.9747 30.3068 43 30C42.9438 30.2787 42.8244 30.5408 42.651 30.7662C42.4777 30.9915 42.2549 31.1742 42 31.3Z" fill="black"/>
<path id="Vector_11" opacity="0.25" d="M22.51 17.6201L42 28.7001C42.255 28.8259 42.4777 29.0085 42.651 29.2339C42.8244 29.4592 42.9438 29.7214 43 30.0001C42.9747 29.6933 42.8689 29.3986 42.6933 29.1458C42.5178 28.893 42.2786 28.6909 42 28.5601L22.51 17.4801C21.11 16.6901 19.97 17.3501 19.97 18.9501V19.1001C20 17.4901 21.12 16.8301 22.51 17.6201Z" fill="white"/>
</g>
<defs>
<linearGradient id="paint0_linear_1_171" x1="31.8" y1="18.71" x2="15.02" y2="35.49" gradientUnits="userSpaceOnUse">
<stop stop-color="#00A0FF"/>
<stop offset="0.01" stop-color="#00A1FF"/>
<stop offset="0.26" stop-color="#00BEFF"/>
<stop offset="0.51" stop-color="#00D2FF"/>
<stop offset="0.76" stop-color="#00DFFF"/>
<stop offset="1" stop-color="#00E3FF"/>
</linearGradient>
<linearGradient id="paint1_linear_1_171" x1="43.83" y1="30" x2="19.64" y2="30" gradientUnits="userSpaceOnUse">
<stop stop-color="#FFE000"/>
<stop offset="0.41" stop-color="#FFBD00"/>
<stop offset="0.78" stop-color="#FFA500"/>
<stop offset="1" stop-color="#FF9C00"/>
</linearGradient>
<linearGradient id="paint2_linear_1_171" x1="34.83" y1="32.3" x2="12.07" y2="55.05" gradientUnits="userSpaceOnUse">
<stop stop-color="#FF3A44"/>
<stop offset="1" stop-color="#C31162"/>
</linearGradient>
<linearGradient id="paint3_linear_1_171" x1="17.3" y1="10.18" x2="27.46" y2="20.34" gradientUnits="userSpaceOnUse">
<stop stop-color="#32A071"/>
<stop offset="0.07" stop-color="#2DA771"/>
<stop offset="0.48" stop-color="#15CF74"/>
<stop offset="0.8" stop-color="#06E775"/>
<stop offset="1" stop-color="#00F076"/>
</linearGradient>
<clipPath id="clip0_1_171">
<rect width="155" height="60" fill="white"/>
</clipPath>
</defs>
</svg>
