<svg width="41" height="41" viewBox="0 0 41 41" fill="none" xmlns="http://www.w3.org/2000/svg">
<g id="Instagram">
<path id="Vector" d="M20.5 40C31.2696 40 40 31.2696 40 20.5C40 9.73045 31.2696 1 20.5 1C9.73045 1 1 9.73045 1 20.5C1 31.2696 9.73045 40 20.5 40Z" stroke="#2F313F"/>
<g id="Group">
<path id="Vector_2" fill-rule="evenodd" clip-rule="evenodd" d="M20.497 10.506C17.782 10.506 17.441 10.518 16.375 10.566C15.311 10.615 14.585 10.784 13.949 11.031C13.2818 11.2819 12.6774 11.6754 12.178 12.184C11.6695 12.6832 11.2761 13.2872 11.025 13.954C10.778 14.592 10.609 15.318 10.56 16.382C10.512 17.448 10.5 17.788 10.5 20.503C10.5 23.218 10.512 23.559 10.56 24.625C10.609 25.689 10.778 26.415 11.025 27.051C11.2759 27.7182 11.6694 28.3226 12.178 28.822C12.6772 29.3305 13.2812 29.7239 13.948 29.975C14.584 30.222 15.311 30.391 16.375 30.44C17.441 30.488 17.782 30.5 20.497 30.5C23.212 30.5 23.552 30.488 24.619 30.44C25.683 30.391 26.409 30.222 27.045 29.975C27.7118 29.7239 28.3158 29.3305 28.815 28.822C29.3238 28.323 29.7176 27.7189 29.969 27.052C30.216 26.416 30.385 25.689 30.434 24.625C30.482 23.559 30.494 23.218 30.494 20.503C30.494 17.788 30.482 17.448 30.434 16.381C30.385 15.317 30.216 14.591 29.969 13.955C29.7179 13.2882 29.3245 12.6842 28.816 12.185C28.317 11.6758 27.713 11.2817 27.046 11.03C26.409 10.783 25.683 10.614 24.619 10.565C23.552 10.517 23.212 10.505 20.497 10.505V10.506ZM20.497 12.308C23.167 12.308 23.482 12.318 24.537 12.366C25.511 12.41 26.04 12.573 26.393 12.71C26.859 12.891 27.193 13.108 27.543 13.458C27.892 13.808 28.109 14.141 28.29 14.608C28.427 14.96 28.59 15.488 28.634 16.464C28.682 17.518 28.692 17.834 28.692 20.504C28.692 23.172 28.682 23.489 28.634 24.543C28.59 25.517 28.427 26.047 28.29 26.399C28.109 26.866 27.892 27.199 27.542 27.549C27.192 27.899 26.859 28.115 26.392 28.296C26.04 28.433 25.512 28.596 24.536 28.64C23.482 28.689 23.166 28.699 20.496 28.699C17.827 28.699 17.511 28.689 16.457 28.64C15.483 28.596 14.953 28.433 14.601 28.296C14.1666 28.1358 13.7736 27.8802 13.451 27.548C13.1193 27.2256 12.8641 26.833 12.704 26.399C12.567 26.047 12.404 25.517 12.36 24.543C12.311 23.489 12.301 23.173 12.301 20.503C12.301 17.833 12.311 17.518 12.36 16.463C12.404 15.489 12.567 14.96 12.704 14.607C12.885 14.141 13.102 13.807 13.452 13.457C13.802 13.108 14.134 12.891 14.601 12.71C14.953 12.573 15.483 12.41 16.457 12.366C17.511 12.318 17.827 12.308 20.497 12.308V12.308Z" fill="#2F313F"/>
<path id="Vector_3" fill-rule="evenodd" clip-rule="evenodd" d="M20.497 23.835C19.6133 23.835 18.7658 23.484 18.1409 22.8591C17.5161 22.2342 17.165 21.3867 17.165 20.503C17.165 19.6193 17.5161 18.7718 18.1409 18.147C18.7658 17.5221 19.6133 17.171 20.497 17.171C21.3807 17.171 22.2282 17.5221 22.8531 18.147C23.478 18.7718 23.829 19.6193 23.829 20.503C23.829 21.3867 23.478 22.2342 22.8531 22.8591C22.2282 23.484 21.3807 23.835 20.497 23.835V23.835ZM20.497 15.37C19.1355 15.37 17.8298 15.9109 16.8671 16.8736C15.9044 17.8363 15.3635 19.1421 15.3635 20.5035C15.3635 21.865 15.9044 23.1708 16.8671 24.1335C17.8298 25.0962 19.1355 25.637 20.497 25.637C21.8585 25.637 23.1642 25.0962 24.127 24.1335C25.0897 23.1708 25.6305 21.865 25.6305 20.5035C25.6305 19.1421 25.0897 17.8363 24.127 16.8736C23.1642 15.9109 21.8585 15.37 20.497 15.37V15.37ZM27.033 15.167C27.033 15.4853 26.9066 15.7905 26.6816 16.0156C26.4565 16.2406 26.1513 16.367 25.833 16.367C25.5148 16.367 25.2095 16.2406 24.9845 16.0156C24.7595 15.7905 24.633 15.4853 24.633 15.167C24.633 14.8488 24.7595 14.5436 24.9845 14.3185C25.2095 14.0935 25.5148 13.967 25.833 13.967C26.1513 13.967 26.4565 14.0935 26.6816 14.3185C26.9066 14.5436 27.033 14.8488 27.033 15.167" fill="#2F313F"/>
</g>
</g>
</svg>
