<svg width="40" height="40" viewBox="0 0 40 40" fill="none" xmlns="http://www.w3.org/2000/svg">
<g id="LinkedIn" clip-path="url(#clip0_1_218)">
<g id="Group">
<path id="Vector" d="M20 39.5C30.7696 39.5 39.5 30.7696 39.5 20C39.5 9.23045 30.7696 0.5 20 0.5C9.23045 0.5 0.5 9.23045 0.5 20C0.5 30.7696 9.23045 39.5 20 39.5Z" stroke="#2F313F"/>
<path id="Vector_2" fill-rule="evenodd" clip-rule="evenodd" d="M29.195 26.667H25.738V21.253C25.738 19.962 25.714 18.301 23.94 18.301C22.14 18.301 21.863 19.707 21.863 21.159V26.667H18.406V15.534H21.725V17.055H21.771C22.233 16.18 23.361 15.257 25.045 15.257C28.548 15.257 29.195 17.563 29.195 20.56V26.667ZM14.507 14.012C13.9748 14.012 13.4645 13.8006 13.0882 13.4243C12.7119 13.048 12.5005 12.5377 12.5005 12.0055C12.5005 11.4734 12.7119 10.963 13.0882 10.5867C13.4645 10.2104 13.9748 9.99902 14.507 9.99902C15.0391 9.99902 15.5495 10.2104 15.9258 10.5867C16.3021 10.963 16.5135 11.4734 16.5135 12.0055C16.5135 12.5377 16.3021 13.048 15.9258 13.4243C15.5495 13.8006 15.0391 14.012 14.507 14.012ZM12.776 26.667H16.236V15.534H12.776V26.667Z" fill="#2F313F"/>
</g>
</g>
<defs>
<clipPath id="clip0_1_218">
<rect width="40" height="40" fill="white"/>
</clipPath>
</defs>
</svg>
