<svg width="50" height="50" viewBox="0 0 50 50" fill="none" xmlns="http://www.w3.org/2000/svg">
<circle cx="25" cy="25" r="25" fill="#D9FDE5"/>
<path d="M29.5 27H31M16 24V32H19L20 30H30L31 32H34V24H16ZM16 24L17.544 19.368C17.6767 18.9696 17.9314 18.6231 18.2721 18.3775C18.6128 18.132 19.0221 17.9999 19.442 18H30.558C30.9779 17.9999 31.3872 18.132 31.7279 18.3775C32.0686 18.6231 32.3233 18.9696 32.456 19.368L34 24H16ZM16 24H34H16ZM19 27H20.5H19Z" stroke="#2EB875" stroke-width="2" stroke-linecap="round" stroke-linejoin="round"/>
</svg>
