<svg width="50" height="50" viewBox="0 0 50 50" fill="none" xmlns="http://www.w3.org/2000/svg">
<circle cx="25" cy="25" r="25" fill="#D9FDE5"/>
<path d="M32.476 25.602L26.388 31.612C26.0137 31.9815 25.5089 32.1886 24.983 32.1886C24.4571 32.1886 23.9523 31.9815 23.578 31.612L17.49 25.602C17.0181 25.1358 16.6435 24.5806 16.3878 23.9686C16.1321 23.3565 16.0004 22.6998 16.0004 22.0365C16.0004 21.3732 16.1321 20.7165 16.3878 20.1044C16.6435 19.4924 17.0181 18.9372 17.49 18.471C19.476 16.51 22.726 16.51 24.712 18.471L24.983 18.738L25.253 18.471C27.24 16.51 30.49 16.51 32.476 18.471C34.462 20.431 34.553 23.641 32.476 25.601V25.602Z" stroke="#2EB875" stroke-width="2" stroke-linecap="round" stroke-linejoin="round"/>
</svg>
