<svg width="24" height="24" viewBox="0 0 24 24" fill="none" xmlns="http://www.w3.org/2000/svg">
<g id="Support">
<path id="Vector" d="M12 21C16.9706 21 21 16.9706 21 12C21 7.02944 16.9706 3 12 3C7.02944 3 3 7.02944 3 12C3 16.9706 7.02944 21 12 21Z" stroke="#2F313F" stroke-width="2" stroke-linecap="round" stroke-linejoin="round"/>
<path id="Vector_2" d="M12 17.5C12.2761 17.5 12.5 17.2761 12.5 17C12.5 16.7239 12.2761 16.5 12 16.5C11.7239 16.5 11.5 16.7239 11.5 17C11.5 17.2761 11.7239 17.5 12 17.5Z" stroke="#2F313F"/>
<path id="Vector_3" d="M12 14V13.346C12 12.533 12.495 11.802 13.25 11.5C13.619 11.3525 13.9353 11.0978 14.1581 10.7687C14.3809 10.4397 14.5 10.0514 14.5 9.654V9.385C14.5 8.75246 14.2487 8.14582 13.8014 7.69855C13.3542 7.25128 12.7475 7 12.115 7H12C11.337 7 10.7011 7.26339 10.2322 7.73223C9.76339 8.20107 9.5 8.83696 9.5 9.5V10" stroke="#2F313F" stroke-width="2" stroke-linecap="round" stroke-linejoin="round"/>
</g>
</svg>
