<svg width="40" height="40" viewBox="0 0 40 40" fill="none" xmlns="http://www.w3.org/2000/svg">
<g id="Twitter" clip-path="url(#clip0_1_222)">
<g id="Group">
<path id="Vector" d="M20 39.5C30.7696 39.5 39.5 30.7696 39.5 20C39.5 9.23045 30.7696 0.5 20 0.5C9.23045 0.5 0.5 9.23045 0.5 20C0.5 30.7696 9.23045 39.5 20 39.5Z" stroke="#2F313F"/>
<path id="Vector_2" d="M16.29 27.9179C23.837 27.9179 27.965 21.6649 27.965 16.2429C27.965 16.0649 27.965 15.8879 27.953 15.7129C28.7562 15.1315 29.4493 14.4115 30 13.5869C29.2511 13.919 28.4566 14.1367 27.643 14.2329C28.4996 13.72 29.1408 12.9133 29.447 11.9629C28.6417 12.4409 27.7607 12.7777 26.842 12.9589C26.2234 12.3007 25.405 11.8648 24.5136 11.7187C23.6222 11.5725 22.7075 11.7243 21.9111 12.1506C21.1147 12.5769 20.4811 13.2538 20.1083 14.0766C19.7355 14.8994 19.6444 15.8221 19.849 16.7019C18.2175 16.6201 16.6215 16.196 15.1645 15.4573C13.7076 14.7185 12.4222 13.6817 11.392 12.4139C10.867 13.3172 10.7061 14.3867 10.9421 15.4045C11.178 16.4223 11.7931 17.3118 12.662 17.8919C12.0091 17.8724 11.3705 17.6961 10.8 17.3779V17.4299C10.8002 18.3774 11.1281 19.2957 11.7281 20.0289C12.3281 20.7622 13.1633 21.2653 14.092 21.4529C13.4878 21.6176 12.8539 21.6415 12.239 21.5229C12.5012 22.3384 13.0117 23.0515 13.6991 23.5626C14.3866 24.0736 15.2166 24.3569 16.073 24.3729C15.2221 25.0415 14.2478 25.5357 13.2057 25.8274C12.1637 26.1191 11.0743 26.2025 10 26.0729C11.8766 27.2772 14.0602 27.916 16.29 27.9129" fill="#2F313F"/>
</g>
</g>
<defs>
<clipPath id="clip0_1_222">
<rect width="40" height="40" fill="white"/>
</clipPath>
</defs>
</svg>
